<?xml version="1.0" encoding="UTF-8"?>
<svg enable-background="new 0 0 139 137.6" version="1.1" viewBox="0 0 139 137.6" xml:space="preserve" xmlns="http://www.w3.org/2000/svg" xmlns:xlink="http://www.w3.org/1999/xlink">
<style type="text/css">
	.st0{clip-path:url(#a);fill:#FFFFFF;}
</style>
	<defs>
		<rect id="b" width="139" height="137.6"/>
	</defs>
	<clipPath id="a">
		<use xlink:href="#b"/>
	</clipPath>
	<path class="st0" d="m35.9 32.9c0-9.7-4.5-12.1-9.2-12.1h-2.3v24.9h2.9c5.4 0.1 8.6-4 8.6-12.8m20.4-23.7h13.3l12.9 21v-21h15v48.3h-12.9l-13.5-21.4v21.4h-14.8v-48.3zm-47.1 0h17.7c14.8 0 24 7 24 22.6 0 18.7-11.3 25.7-23.6 25.7h-18.1v-48.3zm-9.2 128.4h139v-137.6h-139v137.6zm107.8-72.1l-4.3 3.7-0.8-0.8 2.7-4.3c0.6 0.4 1.8 0.6 2.3 0.8v0.6zm0 17.5h-5.6v-0.8c0.4-0.2 1-0.4 1.2-0.6 0.2-0.6 0.2-1.2 0.4-1.9v-5.1c0-0.8-0.2-1.4-0.2-1.9-0.4-0.2-0.8-0.4-1.6-0.4l-0.2-1c1.6 0 2.7-0.4 3.7-0.8l0.6 0.2c-0.2 0.6-0.2 1.9-0.2 2.5v6.8c0 0.6 0 1 0.2 1.4 0.6 0.4 1.2 0.4 1.8 0.8v0.8zm-7.4 0h-5.4v-0.8c0.4-0.2 0.8-0.4 1-0.6 0.2-0.6 0.4-1.2 0.4-1.9v-5.1c0-1.8-0.8-2.5-2.5-2.5-1.2 0-2.3 0.6-2.9 1.2v6.8c0 0.6 0 1 0.2 1.4 0.8 0.4 1.2 0.6 1.8 0.8v0.7h-5.7v-0.8l1.2-0.6c0.2-0.6 0.2-1.2 0.2-1.9v-5.1c0-0.8 0-1.4-0.2-1.9-0.4-0.2-0.8-0.4-1.6-0.4l-0.2-1c1.4 0 2.3-0.4 3.3-0.8l0.4 0.2c0 0.4 0 1.2 0.2 1.4h0.2c0.6-0.4 1.2-1 1.9-1.2 0.4-0.4 1.2-0.4 1.8-0.4 2.7 0 3.7 1.4 3.7 3.9v5.7c0.2 0.6 0.2 1 0.4 1.4 0.6 0.4 1 0.6 1.8 0.8v0.7zm-14.8 0h-5.6v-0.8c0.6-0.2 1-0.4 1.2-0.6 0.2-0.6 0.2-1.2 0.2-1.9v-12.4c-0.4-0.4-1.2-0.4-1.8-0.6l-0.2-0.8c1.6-0.2 2.7-0.4 3.9-1l0.4 0.4v16.2c0.8 0.4 1.2 0.6 1.9 0.8v0.7zm-2.4 10.9c-0.4 0.2-1 0.4-1.2 0.6l-4.3 10.9c-1 2.7-2.3 4.9-5.1 4.9 0 0-0.2 0-0.4-0.2l-0.4-1.9 0.4-0.2c0.4 0.2 0.8 0.2 1 0.2 1.6 0 2.5-1 3.1-2.7l-4.3-11.1c-0.2-0.2-0.8-0.2-1-0.2v-1.2h5.1v1.2h-1.6l-0.2 0.4 2.9 8.2h0.2l2.7-8.2v-0.4h-1.8v-1.2h4.7v0.9zm-12.3 11.3c-1 0-1.9-0.2-2.7-0.2-1 0-1.9 0.2-2.7 0.2v-0.8c0.4-0.2 0.8-0.4 1-0.6 0.2-0.6 0.4-1.2 0.4-1.9v-5.1c0-1.8-0.8-2.5-2.5-2.5-1.2 0-2.3 0.6-2.9 1.2v6.8c0 0.6 0 1 0.2 1.4 0.6 0.4 1.2 0.6 1.8 0.8v0.8c-1 0-1.9-0.2-2.7-0.2-1 0-1.9 0.2-2.7 0.2v-0.8c0.2-0.2 0.8-0.4 1-0.6 0.2-0.6 0.2-1.2 0.4-1.9v-5.1c0-0.8-0.2-1.4-0.2-1.9-0.4-0.4-1-0.4-1.6-0.4l-0.2-0.8c1.4-0.2 2.1-0.6 3.1-1l0.4 0.2c0 0.4 0 1.2 0.2 1.4h0.2c0.4-0.4 1.2-1 1.8-1.4 0.6-0.2 1.4-0.2 1.8-0.2 2.7 0 3.9 1.4 3.9 3.9v5.7c0 0.6 0.2 1 0.2 1.4 0.8 0.4 1.2 0.6 1.9 0.8v0.6zm-16.3-28c0-4.3 3.1-6.6 5.8-6.6 1 0 1.8 0 2.3 0.4v-1.8c0-0.8 0-1.4-0.2-1.9-0.4-0.4-1-0.4-1.8-0.6l-0.2-0.8c1.6-0.2 2.9-0.4 3.9-1l0.6 0.4c-0.2 0.6-0.2 1.2-0.2 1.9v11.9c0 1 0.2 1.9 0.4 2.3 0.6 0.4 1 0.4 1.8 0.8v0.8h-3.7c-0.2-0.6-0.2-1.2-0.2-1.6h-0.4c-0.6 0.4-1 1-1.8 1.4-0.6 0.4-1 0.4-1.8 0.4-3 0-4.5-2.3-4.5-6m1.3 28c-1 0-1.9-0.2-2.9-0.2-0.8 0-1.8 0.2-2.7 0.2v-0.8c0.4-0.2 1-0.4 1.4-0.6 0-0.6 0.2-1.2 0.2-1.9v-5.1c0-0.8 0-1.4-0.2-1.9-0.4-0.4-0.8-0.4-1.4-0.4l-0.2-0.8c1.4-0.2 2.5-0.6 3.7-1l0.6 0.2c-0.2 0.6-0.4 1.9-0.4 2.5v6.8c0 0.6 0 1 0.2 1.4 0.8 0.4 1.2 0.4 1.8 0.8v0.8zm-6.4-23.7h-0.4c-0.4 0.4-1 1-1.6 1.4-0.4 0.2-0.8 0.4-1.8 0.4-1.4 0-3.1-0.8-3.1-3.1 0-1.2 0.4-1.9 1-2.3 0.8-0.8 2.9-1.4 5.5-1.9v-1.2c0-1.9-0.4-2.7-2.3-2.7-0.8 0-1.4 0.2-1.4 0.2-0.2 0.6-0.2 1.6-0.2 2.1l-1.2 0.2h-0.4c0-1-0.2-1.9-0.4-2.7 1.2-0.8 3.5-1.4 4.7-1.4 2.3 0 3.3 1.2 3.3 3.5v5.3c0 0.8 0.2 1.8 0.4 2.1 0.6 0.4 1 0.4 1.8 0.8v0.8h-3.7c-0.2-0.6-0.2-1.1-0.2-1.5m-1 12.4c-0.4 0.2-1 0.4-1.2 0.6l-4.3 10.9h-1.4l-4.1-11.1c-0.2-0.2-0.8-0.2-1.2-0.2v-1.1h5.1v1.2h-1.4v0.3l2.7 8h0.4l2.7-8-0.2-0.4h-1.6v-1.1h4.5v0.9zm-14.2-10.7l-4.1-11.1c-0.2-0.2-0.8-0.2-1.2-0.2v-1.2h5.1v1.2h-1.4v0.4l2.7 8.2 2.9-8.2-0.2-0.4h-1.4v-1.2h4.3v1c-0.2 0.2-0.8 0.4-1.2 0.6l-4.1 10.9h-1.4zm-4.9 22.2c-3.5 0-5.5-2.5-5.5-6.2 0-3.9 2.3-6.4 6-6.4 3.1 0 5.5 1.9 5.5 5.8 0.1 4.1-2.3 6.8-6 6.8m-6.4-0.2c-1 0-1.8-0.2-2.7-0.2s-1.8 0.2-2.7 0.2v-0.8c0.2-0.2 0.8-0.4 1-0.6 0.2-0.6 0.2-1.2 0.4-1.9v-5.1c0-1.8-0.8-2.5-2.5-2.5-1.2 0-2.3 0.6-2.9 1.2v6.8c0 0.6 0 1 0.2 1.4 0.6 0.4 1.2 0.6 1.8 0.8v0.8c-1 0-1.8-0.2-2.7-0.2-1 0-1.8 0.2-2.7 0.2v-0.8c0.4-0.2 1-0.4 1-0.6 0.2-0.6 0.4-1.2 0.4-1.9v-5.1c0-0.8 0-1.4-0.2-1.9-0.4-0.4-1-0.4-1.8-0.4v-0.8c1.6-0.2 2.1-0.6 3.3-1l0.4 0.2c0 0.4 0 1.2 0.2 1.4h0.2c0.6-0.4 1-1 1.8-1.4 0.6-0.2 1.4-0.2 1.9-0.2 2.5 0 3.7 1.4 3.7 3.9v5.7c0 0.6 0.2 1 0.4 1.4 0.6 0.4 1 0.6 1.8 0.8v0.6zm-8.6-34.7c1 0 1.9 0 2.5 0.4v-1.8c0-0.8 0-1.4-0.2-1.9-0.4-0.4-1-0.4-1.8-0.6v-0.8c1.4-0.2 2.7-0.4 3.7-1l0.6 0.4c-0.2 0.6-0.2 1.2-0.2 1.9v11.9c0 1 0.2 1.9 0.4 2.3 0.6 0.4 1 0.4 1.8 0.8v0.9h-3.7c-0.2-0.6-0.2-1.2-0.4-1.6-0.6 0.4-1.4 1-1.9 1.4-0.8 0.4-1 0.4-1.8 0.4-3.1 0-4.7-2.3-4.7-6 0.1-4.3 3-6.7 5.7-6.7m9.6-3.7c0-1 0.6-1.6 1.4-1.6 1 0 1.6 0.6 1.6 1.6 0 0.8-0.6 1.4-1.6 1.4-0.8 0-1.4-0.6-1.4-1.4m0.4 5.9c-0.4-0.2-0.8-0.4-1.6-0.4l-0.2-1c1.4 0 2.7-0.4 3.7-0.8l0.6 0.2c-0.2 0.6-0.4 1.9-0.4 2.5v6.8c0 0.6 0.2 1 0.2 1.4 0.8 0.4 1.2 0.4 1.9 0.8v0.8h-5.6v-0.8c0.2-0.2 1-0.4 1.2-0.6 0.2-0.6 0.4-1.2 0.4-1.9v-5.1c0-0.7 0-1.3-0.2-1.9m30 16.4c0 0.8-0.8 1.4-1.6 1.4s-1.6-0.6-1.6-1.4 0.8-1.8 1.6-1.8 1.6 1 1.6 1.8m20-7.6c1.4 0 1.9-0.4 3.3-1.2l0.4 0.8c-0.8 0.6-2.1 1.8-2.5 1.8-0.6 0.4-1.4 0.4-2.1 0.4-3.1 0-5.3-2.1-5.3-6.2 0-3.7 2.1-6.4 5.7-6.4 2.9 0 4.3 2.1 4.3 4.9l-0.8 0.4-7 0.4c0 2.9 1.3 5.1 4 5.1m-11.6-1v-7.4c-0.6-0.8-1.4-1.6-2.7-1.6-1.8 0-3.1 1.8-3.1 4.9 0 2.7 0.8 5.3 3.1 5.3 0.9 0 1.9-0.4 2.7-1.2m10.9-9c-1.9 0-3.1 1.4-3.3 3.9l5.5-0.4c-0.1-1.7-0.7-3.5-2.2-3.5m-44.3 22.4c-2.1 0-2.9 1.9-2.9 4.3 0 2.5 0.8 6 3.5 6 2.1 0 2.9-1.9 2.9-4.5 0-3.2-1.1-5.8-3.5-5.8m-15.2-12.2c1 0 1.9-0.4 2.7-1.2v-7.4c-0.6-0.8-1.6-1.6-2.5-1.6-1.9 0-3.3 1.8-3.3 4.9 0 2.7 0.8 5.3 3.1 5.3m30.8-2c0 1.4 0.6 1.9 1.8 1.9 1 0 1.8-0.6 2.3-1.2v-3.7c-1.6 0.4-2.9 0.8-3.5 1.4-0.4 0.4-0.6 1-0.6 1.6"/>
</svg>
